<svg xmlns="http://www.w3.org/2000/svg" xmlns:xlink="http://www.w3.org/1999/xlink" viewBox="0 0 1998 670"><defs><style>.bd2dfd09-8057-4388-8837-40ef4e2a5f82{isolation:isolate;}.a875ac46-c77e-486e-9a33-3a4fcadbb35d{fill:url(#a95f5d3a-9a33-4b88-8baf-f95d40463e42);}.aa6e4e2a-3d49-4fb0-bc01-4349283c31b9,.b2f49a36-a71e-45ee-a1c7-27833814d6ec{mix-blend-mode:overlay;}.b2f49a36-a71e-45ee-a1c7-27833814d6ec{fill:url(#bcb6327b-ccc8-4935-8406-ee619f2ab56d);}.a3e16544-d50e-444d-bb17-5ae10e328577{opacity:0.61;}.aa6e4e2a-3d49-4fb0-bc01-4349283c31b9{opacity:0.56;fill:url(#bf823664-cd69-4ab9-9a52-1676ccef1d5d);}.a033b58f-b5fd-4f0e-9170-71583001f16c{opacity:0.23;mix-blend-mode:hard-light;fill:url(#e77bf8e3-c6a6-450e-b82e-b3346b5271b9);}.befa4196-1d40-473d-a533-e579bceb93c6{fill:url(#fcbd14bd-3fc5-4466-86c0-3b6053d21ac8);}.f3ba077e-c415-41e1-8757-58a6e5b9865d{mix-blend-mode:multiply;fill:url(#b012a3e5-0400-4c05-882c-acc7022393e0);}.b8931529-97ea-4758-aa6a-26ebe9047aea{fill:#fff;}.e1cda87d-1e6f-423d-80be-fb8dd7c05806{fill:#44cbb3;}</style><linearGradient id="a95f5d3a-9a33-4b88-8baf-f95d40463e42" x1="178" y1="335" x2="521" y2="335" gradientUnits="userSpaceOnUse"><stop offset="0" stop-color="#3ecedd"/><stop offset="1" stop-color="#5ce4c1"/></linearGradient><linearGradient id="bcb6327b-ccc8-4935-8406-ee619f2ab56d" x1="351.52" y1="337.09" x2="475.48" y2="453.92" gradientUnits="userSpaceOnUse"><stop offset="0" stop-opacity="0.5"/><stop offset="1"/></linearGradient><radialGradient id="bf823664-cd69-4ab9-9a52-1676ccef1d5d" cx="371.44" cy="380.76" r="597.43" gradientUnits="userSpaceOnUse"><stop offset="0" stop-color="#fff" stop-opacity="0"/><stop offset="0.06" stop-color="#fff" stop-opacity="0.1"/><stop offset="0.21" stop-color="#fff" stop-opacity="0.34"/><stop offset="0.35" stop-color="#fff" stop-opacity="0.54"/><stop offset="0.5" stop-color="#fff" stop-opacity="0.7"/><stop offset="0.64" stop-color="#fff" stop-opacity="0.83"/><stop offset="0.77" stop-color="#fff" stop-opacity="0.93"/><stop offset="0.89" stop-color="#fff" stop-opacity="0.98"/><stop offset="1" stop-color="#fff"/></radialGradient><radialGradient id="e77bf8e3-c6a6-450e-b82e-b3346b5271b9" cx="374.04" cy="355" r="340.02" gradientUnits="userSpaceOnUse"><stop offset="0" stop-opacity="0"/><stop offset="0.12" stop-color="#3d3d3d" stop-opacity="0.24"/><stop offset="0.24" stop-color="#777" stop-opacity="0.47"/><stop offset="0.36" stop-color="#a8a8a8" stop-opacity="0.66"/><stop offset="0.47" stop-color="#cecece" stop-opacity="0.81"/><stop offset="0.58" stop-color="#e9e9e9" stop-opacity="0.91"/><stop offset="0.67" stop-color="#f9f9f9" stop-opacity="0.98"/><stop offset="0.74" stop-color="#fff"/></radialGradient><linearGradient id="fcbd14bd-3fc5-4466-86c0-3b6053d21ac8" x1="349.09" y1="427.4" x2="351.5" y2="245.24" gradientUnits="userSpaceOnUse"><stop offset="0" stop-color="#fff" stop-opacity="0.5"/><stop offset="0.01" stop-color="#fff" stop-opacity="0.5"/><stop offset="0.34" stop-color="#fff" stop-opacity="0.72"/><stop offset="0.63" stop-color="#fff" stop-opacity="0.87"/><stop offset="0.86" stop-color="#fff" stop-opacity="0.97"/><stop offset="1" stop-color="#fff"/></linearGradient><linearGradient id="b012a3e5-0400-4c05-882c-acc7022393e0" x1="348.08" y1="279.33" x2="353.31" y2="406.8" gradientUnits="userSpaceOnUse"><stop offset="0" stop-color="#fff" stop-opacity="0.4"/><stop offset="0.2" stop-color="#fff" stop-opacity="0.42"/><stop offset="0.47" stop-color="#fff" stop-opacity="0.49"/><stop offset="0.79" stop-color="#fff" stop-opacity="0.61"/><stop offset="1" stop-color="#fff" stop-opacity="0.7"/></linearGradient></defs><g class="bd2dfd09-8057-4388-8837-40ef4e2a5f82"><g id="e3b39587-9e49-4c06-b297-e0ea36456dff" data-name="Layer 1"><g id="b300fc52-a537-4479-9b70-36b9dc4aa44f" data-name="Group-2"><circle id="b3d52c0b-6eea-428b-b5fb-9006afa63491" data-name="Combined-Shape" class="a875ac46-c77e-486e-9a33-3a4fcadbb35d" cx="349.5" cy="335" r="171.5"/></g><circle class="b2f49a36-a71e-45ee-a1c7-27833814d6ec" cx="349.29" cy="334.98" r="169.86"/><g class="a3e16544-d50e-444d-bb17-5ae10e328577"><path class="aa6e4e2a-3d49-4fb0-bc01-4349283c31b9" d="M495.23,285.85c0,52.74-67.62,91-141,91s-145.07-48-145.07-100.77,71.68-90.21,145.07-90.21S495.23,233.11,495.23,285.85Z"/><path class="a033b58f-b5fd-4f0e-9170-71583001f16c" d="M495.23,285.85c0,52.74-67.62,91-141,91s-145.07-48-145.07-100.77,71.68-90.21,145.07-90.21S495.23,233.11,495.23,285.85Z"/></g><path class="befa4196-1d40-473d-a533-e579bceb93c6" d="M468.38,311.53A76,76,0,0,0,442.77,277q-2.62-2-5.38-3.74a77.54,77.54,0,0,0-40.53-12.09,67.08,67.08,0,0,0-49,21.41l-2.4,2.47,18.63,18.51,2.39-2.44a42,42,0,0,1,30.61-13.45A50.2,50.2,0,0,1,427,298.25c9.07,6.94,17.18,17.91,18.74,31.13,1,8.13-.55,17.12-5.87,26.55a49.08,49.08,0,0,1-25.64,21.6l-28.05-27.1L368,332.89l-68.33-66a13,13,0,0,0-13.12-3.72A75.27,75.27,0,0,0,238.1,299.3c-.8,1.41-1.54,2.83-2.23,4.24-17.46,35.54-1.93,69.33,22.07,87.68a77.4,77.4,0,0,0,45.95,15.83,67.11,67.11,0,0,0,49-21.41l2.38-2.46-18.7-18.46-2.38,2.46a42,42,0,0,1-30.6,13.49,50.21,50.21,0,0,1-30-10.61c-12.67-9.7-23.48-27.3-17.11-47.9a50.21,50.21,0,0,1,4.27-9.79,49.09,49.09,0,0,1,25.63-21.77l62.19,60.06,2.42,2.34,50.05,48.34a13.48,13.48,0,0,0,8.37,3.94,2.49,2.49,0,0,0,.47.12h.75a12.67,12.67,0,0,0,2.22-.24h1a75.57,75.57,0,0,0,48.64-36.22C474,348.52,474.45,328.53,468.38,311.53Z"/><path class="f3ba077e-c415-41e1-8757-58a6e5b9865d" d="M468.38,311.53A76,76,0,0,0,442.77,277q-2.62-2-5.38-3.74a77.54,77.54,0,0,0-40.53-12.09,67.08,67.08,0,0,0-49,21.41l-2.4,2.47,18.63,18.51,2.39-2.44a42,42,0,0,1,30.61-13.45A50.2,50.2,0,0,1,427,298.25c9.07,6.94,17.18,17.91,18.74,31.13,1,8.13-.55,17.12-5.87,26.55a49.08,49.08,0,0,1-25.64,21.6l-28.05-27.1L368,332.89l-68.33-66a13,13,0,0,0-13.12-3.72A75.27,75.27,0,0,0,238.1,299.3c-.8,1.41-1.54,2.83-2.23,4.24-17.46,35.54-1.93,69.33,22.07,87.68a77.4,77.4,0,0,0,45.95,15.83,67.11,67.11,0,0,0,49-21.41l2.38-2.46-18.7-18.46-2.38,2.46a42,42,0,0,1-30.6,13.49,50.21,50.21,0,0,1-30-10.61c-12.67-9.7-23.48-27.3-17.11-47.9a50.21,50.21,0,0,1,4.27-9.79,49.09,49.09,0,0,1,25.63-21.77l62.19,60.06,2.42,2.34,50.05,48.34a13.48,13.48,0,0,0,8.37,3.94,2.49,2.49,0,0,0,.47.12h.75a12.67,12.67,0,0,0,2.22-.24h1a75.57,75.57,0,0,0,48.64-36.22C474,348.52,474.45,328.53,468.38,311.53Z"/><path class="b8931529-97ea-4758-aa6a-26ebe9047aea" d="M681.34,342.05q-14.07,13.6-42.91,13.6H606.76v68.78H585.25V259.68h53.18q27.9,0,42.43,13.47T695.4,307.9Q695.4,328.47,681.34,342.05Zm-16.43-11.93q8.51-7.8,8.51-22.22,0-30.5-35-30.49H606.76v60.51h31.67Q656.4,337.92,664.91,330.12Z"/><path class="b8931529-97ea-4758-aa6a-26ebe9047aea" d="M747.93,415.33a78.67,78.67,0,0,1-29.9-30q-11-19.26-11-43.37t11-43.38a78.74,78.74,0,0,1,29.9-30,87.26,87.26,0,0,1,83.92,0,78.19,78.19,0,0,1,29.78,29.9q10.88,19.15,10.87,43.5t-10.87,43.49a78.19,78.19,0,0,1-29.78,29.9,87.19,87.19,0,0,1-83.92,0Zm72.92-15.95a56.57,56.57,0,0,0,21.75-22.93q7.92-14.9,7.92-34.51,0-19.86-7.92-34.63A57,57,0,0,0,821,284.5q-13.71-8-31.2-8t-31.2,8a57,57,0,0,0-21.63,22.81Q729,322.09,729,341.94q0,19.62,7.92,34.51a56.57,56.57,0,0,0,21.75,22.93,64.16,64.16,0,0,0,62.16,0Z"/><path class="b8931529-97ea-4758-aa6a-26ebe9047aea" d="M894,298.56a78.94,78.94,0,0,1,29.66-30.14,81.87,81.87,0,0,1,41.72-10.87q27,0,47,13t29.31,36.88H1016a51.79,51.79,0,0,0-19.74-22.93q-12.88-8-30.85-8a60,60,0,0,0-31,8,56.2,56.2,0,0,0-21.51,22.81q-7.8,14.78-7.8,34.63,0,19.62,7.8,34.39a56.2,56.2,0,0,0,21.51,22.81,60,60,0,0,0,31,8q18,0,30.85-7.92T1016,376.45h25.76q-9.21,23.64-29.31,36.52t-47,12.88a82.48,82.48,0,0,1-41.72-10.75A78.26,78.26,0,0,1,894,385.19q-10.87-19.14-10.88-43.25T894,298.56Z"/><path class="b8931529-97ea-4758-aa6a-26ebe9047aea" d="M1146.74,424.43l-67.84-75.17v75.17h-21.51V259.68h21.51V336L1147,259.68h27.18l-74.69,82.49,75.4,82.26Z"/><path class="b8931529-97ea-4758-aa6a-26ebe9047aea" d="M1208,277.17v55.08h60V350h-60V406.7h67.13v17.73h-88.64v-165h88.64v17.73Z"/><path class="b8931529-97ea-4758-aa6a-26ebe9047aea" d="M1403.36,259.68v17.49h-44.91V424.43h-21.51V277.17h-45.15V259.68Z"/><path class="e1cda87d-1e6f-423d-80be-fb8dd7c05806" d="M1538.53,353.76a40.71,40.71,0,0,1,9,26A41.86,41.86,0,0,1,1541,403q-6.49,10.05-18.79,15.72t-29.07,5.67H1422v-165h68.07q16.79,0,29,5.44T1537.47,280a39.65,39.65,0,0,1,6.26,22q0,14.42-7.68,24.11a41.12,41.12,0,0,1-20.45,13.71A37,37,0,0,1,1538.53,353.76Zm-83.44-26.24h30.26q11.81,0,18.2-5.32t6.38-15.25q0-9.93-6.38-15.36t-18.2-5.44h-30.26Zm52.12,64.29q6.74-5.67,6.74-16.07,0-10.64-7.09-16.67t-19.15-6h-32.62v44.44h33.33Q1500.48,397.49,1507.21,391.81Z"/><path class="e1cda87d-1e6f-423d-80be-fb8dd7c05806" d="M1593.24,259.44v165h-33.09v-165Z"/><path class="e1cda87d-1e6f-423d-80be-fb8dd7c05806" d="M1732.91,259.44v26.71h-44V424.43h-33.09V286.15h-44V259.44Z"/><path class="e1cda87d-1e6f-423d-80be-fb8dd7c05806" d="M1777.68,420.18a51,51,0,0,1-21.86-17q-8-11.12-8.27-26.24H1783q.72,10.17,7.21,16.07t17.85,5.91q11.58,0,18.2-5.55a18.07,18.07,0,0,0,6.62-14.54,16.81,16.81,0,0,0-4.49-12.05,31.54,31.54,0,0,0-11.23-7.45,187.28,187.28,0,0,0-18.56-6,199.47,199.47,0,0,1-26.12-9.33A45.69,45.69,0,0,1,1755.23,330q-7.21-9.33-7.21-24.94,0-14.65,7.33-25.53a46.58,46.58,0,0,1,20.56-16.66q13.24-5.79,30.26-5.79,25.53,0,41.48,12.41t17.61,34.63h-36.4a18.94,18.94,0,0,0-7.21-14.07q-6.74-5.55-17.85-5.55-9.69,0-15.48,5t-5.79,14.42a14.92,14.92,0,0,0,4.37,11,33.25,33.25,0,0,0,10.88,7.09q6.49,2.73,18.32,6.27a192.35,192.35,0,0,1,26.23,9.45,47.26,47.26,0,0,1,17.5,14.18q7.32,9.47,7.32,24.82a46.71,46.71,0,0,1-6.85,24.59q-6.85,11.34-20.09,18.08t-31.44,6.74A78.37,78.37,0,0,1,1777.68,420.18Z"/></g></g></svg>