<svg xmlns="http://www.w3.org/2000/svg" xmlns:xlink="http://www.w3.org/1999/xlink" viewBox="0 0 1998 670"><defs><style>.a7b22a31-74ff-4371-a2ac-1b2518c37159{isolation:isolate;}.a39e10ac-0121-4e5c-aa65-ec42fca471e7{fill:#44cbb3;}.b5b58346-8a32-4905-b58c-46ce32fbecbf{fill:url(#b2b020b6-f5b3-4b5b-94bb-5be5774bc86f);}.af0196a3-1fb5-469d-a32c-a1ae1b8fd632{opacity:0.56;fill:url(#e9f50367-49a1-4f32-9dd2-ef7670782fcb);}.a25f6053-a95b-4e1b-ac9e-d1ff0f68624d,.af0196a3-1fb5-469d-a32c-a1ae1b8fd632{mix-blend-mode:overlay;}.b6cced85-2fc7-4cba-8c04-9cad0c212367{opacity:0.23;mix-blend-mode:hard-light;fill:url(#f884eeb9-0b25-4b0a-8f55-43a055f498c1);}.a25f6053-a95b-4e1b-ac9e-d1ff0f68624d{fill:url(#fa469e69-ca41-4437-9a98-eb3cecb0263d);}.f57821cc-7bae-43a4-8efe-03d6634bd262{fill:url(#ee813172-27c2-460b-9e85-54415295544e);}.e8ded8a6-1d8e-4cff-b1b1-1903a65e8c4a{mix-blend-mode:multiply;fill:url(#ef550cd9-4fdb-45f1-9d6e-943d63170a3e);}</style><linearGradient id="b2b020b6-f5b3-4b5b-94bb-5be5774bc86f" x1="351.99" y1="337.07" x2="476.39" y2="454.32" gradientUnits="userSpaceOnUse"><stop offset="0" stop-opacity="0.85"/><stop offset="1"/></linearGradient><radialGradient id="e9f50367-49a1-4f32-9dd2-ef7670782fcb" cx="369.29" cy="356.39" r="536.65" gradientUnits="userSpaceOnUse"><stop offset="0" stop-color="#fff" stop-opacity="0"/><stop offset="0.06" stop-color="#fff" stop-opacity="0.1"/><stop offset="0.21" stop-color="#fff" stop-opacity="0.34"/><stop offset="0.35" stop-color="#fff" stop-opacity="0.54"/><stop offset="0.5" stop-color="#fff" stop-opacity="0.7"/><stop offset="0.64" stop-color="#fff" stop-opacity="0.83"/><stop offset="0.77" stop-color="#fff" stop-opacity="0.93"/><stop offset="0.89" stop-color="#fff" stop-opacity="0.98"/><stop offset="1" stop-color="#fff"/></radialGradient><radialGradient id="f884eeb9-0b25-4b0a-8f55-43a055f498c1" cx="371.62" cy="333.24" r="305.42" gradientUnits="userSpaceOnUse"><stop offset="0" stop-opacity="0"/><stop offset="0.12" stop-color="#3d3d3d" stop-opacity="0.24"/><stop offset="0.24" stop-color="#777" stop-opacity="0.47"/><stop offset="0.36" stop-color="#a8a8a8" stop-opacity="0.66"/><stop offset="0.47" stop-color="#cecece" stop-opacity="0.81"/><stop offset="0.58" stop-color="#e9e9e9" stop-opacity="0.91"/><stop offset="0.67" stop-color="#f9f9f9" stop-opacity="0.98"/><stop offset="0.74" stop-color="#fff"/></radialGradient><linearGradient id="fa469e69-ca41-4437-9a98-eb3cecb0263d" x1="352.53" y1="337.07" x2="476.93" y2="454.32" gradientUnits="userSpaceOnUse"><stop offset="0" stop-opacity="0.5"/><stop offset="1"/></linearGradient><linearGradient id="ee813172-27c2-460b-9e85-54415295544e" x1="349.12" y1="423.34" x2="351.4" y2="250.8" gradientUnits="userSpaceOnUse"><stop offset="0" stop-color="#fff" stop-opacity="0.5"/><stop offset="0.01" stop-color="#fff" stop-opacity="0.5"/><stop offset="0.34" stop-color="#fff" stop-opacity="0.72"/><stop offset="0.63" stop-color="#fff" stop-opacity="0.87"/><stop offset="0.86" stop-color="#fff" stop-opacity="0.97"/><stop offset="1" stop-color="#fff"/></linearGradient><linearGradient id="ef550cd9-4fdb-45f1-9d6e-943d63170a3e" x1="348.16" y1="283.09" x2="353.11" y2="403.83" gradientUnits="userSpaceOnUse"><stop offset="0" stop-color="#fff" stop-opacity="0.4"/><stop offset="0.2" stop-color="#fff" stop-opacity="0.42"/><stop offset="0.47" stop-color="#fff" stop-opacity="0.49"/><stop offset="0.79" stop-color="#fff" stop-opacity="0.61"/><stop offset="1" stop-color="#fff" stop-opacity="0.7"/></linearGradient></defs><g class="a7b22a31-74ff-4371-a2ac-1b2518c37159"><g id="bb1da086-f705-4b89-ba20-2426d61f589b" data-name="Layer 1"><path class="a39e10ac-0121-4e5c-aa65-ec42fca471e7" d="M681.34,342.05q-14.07,13.6-42.91,13.6H606.76v68.78H585.25V259.68h53.18q27.9,0,42.43,13.47T695.4,307.9Q695.4,328.47,681.34,342.05Zm-16.43-11.93q8.51-7.8,8.51-22.22,0-30.5-35-30.49H606.76v60.51h31.67Q656.4,337.92,664.91,330.12Z"/><path class="a39e10ac-0121-4e5c-aa65-ec42fca471e7" d="M747.93,415.33a78.67,78.67,0,0,1-29.9-30q-11-19.26-11-43.37t11-43.38a78.74,78.74,0,0,1,29.9-30,87.26,87.26,0,0,1,83.92,0,78.19,78.19,0,0,1,29.78,29.9q10.88,19.15,10.87,43.5t-10.87,43.49a78.19,78.19,0,0,1-29.78,29.9,87.19,87.19,0,0,1-83.92,0Zm72.92-15.95a56.57,56.57,0,0,0,21.75-22.93q7.92-14.9,7.92-34.51,0-19.86-7.92-34.63A57,57,0,0,0,821,284.5q-13.71-8-31.2-8t-31.2,8a57,57,0,0,0-21.63,22.81Q729,322.09,729,341.94q0,19.62,7.92,34.51a56.57,56.57,0,0,0,21.75,22.93,64.16,64.16,0,0,0,62.16,0Z"/><path class="a39e10ac-0121-4e5c-aa65-ec42fca471e7" d="M894,298.56a78.94,78.94,0,0,1,29.66-30.14,81.87,81.87,0,0,1,41.72-10.87q27,0,47,13t29.31,36.88H1016a51.79,51.79,0,0,0-19.74-22.93q-12.88-8-30.85-8a60,60,0,0,0-31,8,56.2,56.2,0,0,0-21.51,22.81q-7.8,14.78-7.8,34.63,0,19.62,7.8,34.39a56.2,56.2,0,0,0,21.51,22.81,60,60,0,0,0,31,8q18,0,30.85-7.92T1016,376.45h25.76q-9.21,23.64-29.31,36.52t-47,12.88a82.48,82.48,0,0,1-41.72-10.75A78.26,78.26,0,0,1,894,385.19q-10.87-19.14-10.88-43.25T894,298.56Z"/><path class="a39e10ac-0121-4e5c-aa65-ec42fca471e7" d="M1146.74,424.43l-67.84-75.17v75.17h-21.51V259.68h21.51V336L1147,259.68h27.18l-74.69,82.49,75.4,82.26Z"/><path class="a39e10ac-0121-4e5c-aa65-ec42fca471e7" d="M1208,277.17v55.08h60V350h-60V406.7h67.13v17.73h-88.64v-165h88.64v17.73Z"/><path class="a39e10ac-0121-4e5c-aa65-ec42fca471e7" d="M1403.36,259.68v17.49h-44.91V424.43h-21.51V277.17h-45.15V259.68Z"/><path d="M1538.53,353.76a40.71,40.71,0,0,1,9,26A41.86,41.86,0,0,1,1541,403q-6.49,10.05-18.79,15.72t-29.07,5.67H1422v-165h68.07q16.79,0,29,5.44T1537.47,280a39.65,39.65,0,0,1,6.26,22q0,14.42-7.68,24.11a41.12,41.12,0,0,1-20.45,13.71A37,37,0,0,1,1538.53,353.76Zm-83.44-26.24h30.26q11.81,0,18.2-5.32t6.38-15.25q0-9.93-6.38-15.36t-18.2-5.44h-30.26Zm52.12,64.29q6.74-5.67,6.74-16.07,0-10.64-7.09-16.67t-19.15-6h-32.62v44.44h33.33Q1500.48,397.49,1507.21,391.81Z"/><path d="M1593.24,259.44v165h-33.09v-165Z"/><path d="M1732.91,259.44v26.71h-44V424.43h-33.09V286.15h-44V259.44Z"/><path d="M1777.68,420.18a51,51,0,0,1-21.86-17q-8-11.12-8.27-26.24H1783q.72,10.17,7.21,16.07t17.85,5.91q11.58,0,18.2-5.55a18.07,18.07,0,0,0,6.62-14.54,16.81,16.81,0,0,0-4.49-12.05,31.54,31.54,0,0,0-11.23-7.45,187.28,187.28,0,0,0-18.56-6,199.47,199.47,0,0,1-26.12-9.33A45.69,45.69,0,0,1,1755.23,330q-7.21-9.33-7.21-24.94,0-14.65,7.33-25.53a46.58,46.58,0,0,1,20.56-16.66q13.24-5.79,30.26-5.79,25.53,0,41.48,12.41t17.61,34.63h-36.4a18.94,18.94,0,0,0-7.21-14.07q-6.74-5.55-17.85-5.55-9.69,0-15.48,5t-5.79,14.42a14.92,14.92,0,0,0,4.37,11,33.25,33.25,0,0,0,10.88,7.09q6.49,2.73,18.32,6.27a192.35,192.35,0,0,1,26.23,9.45,47.26,47.26,0,0,1,17.5,14.18q7.32,9.47,7.32,24.82a46.71,46.71,0,0,1-6.85,24.59q-6.85,11.34-20.09,18.08t-31.44,6.74A78.37,78.37,0,0,1,1777.68,420.18Z"/><circle class="b5b58346-8a32-4905-b58c-46ce32fbecbf" cx="349.75" cy="334.96" r="170.46"/><path class="af0196a3-1fb5-469d-a32c-a1ae1b8fd632" d="M480.49,271.13c0,47.38-60.74,81.77-126.66,81.77s-130.31-43.15-130.31-90.53,64.39-81,130.31-81S480.49,223.76,480.49,271.13Z"/><path class="b6cced85-2fc7-4cba-8c04-9cad0c212367" d="M480.49,271.13c0,47.38-60.74,81.77-126.66,81.77s-130.31-43.15-130.31-90.53,64.39-81,130.31-81S480.49,223.76,480.49,271.13Z"/><circle class="a25f6053-a95b-4e1b-ac9e-d1ff0f68624d" cx="350.29" cy="334.96" r="170.46"/><path class="f57821cc-7bae-43a4-8efe-03d6634bd262" d="M462.11,313.58a72.08,72.08,0,0,0-24.26-32.73c-1.66-1.25-3.35-2.43-5.09-3.54a73.51,73.51,0,0,0-38.4-11.45,63.56,63.56,0,0,0-46.42,20.28l-2.27,2.34L363.31,306l2.27-2.31a39.74,39.74,0,0,1,29-12.74A46.89,46.89,0,0,1,412,294.6a46.18,46.18,0,0,1,11,6.41c8.59,6.58,16.27,17,17.75,29.48.92,7.71-.52,16.22-5.56,25.15a46.46,46.46,0,0,1-24.28,20.46l-26.58-25.67-17.21-16.61-64.73-62.5a12.28,12.28,0,0,0-12.42-3.53A71.35,71.35,0,0,0,244,302c-.76,1.33-1.46,2.68-2.11,4-16.54,33.67-1.83,65.67,20.9,83.05A73.66,73.66,0,0,0,294.7,403a71.41,71.41,0,0,0,11.61,1.07,63.52,63.52,0,0,0,46.44-20.28l2.26-2.33L337.3,364l-2.25,2.33a39.9,39.9,0,0,1-29,12.78A47.57,47.57,0,0,1,277.66,369c-12-9.2-22.23-25.86-16.2-45.38a47.57,47.57,0,0,1,4-9.27,46.58,46.58,0,0,1,24.29-20.62l58.9,56.89,2.29,2.21,47.41,45.79a12.76,12.76,0,0,0,7.92,3.74,3.69,3.69,0,0,0,.45.11h.71a12.27,12.27,0,0,0,2.11-.22h.95A71.6,71.6,0,0,0,456.58,368C467.44,348.63,467.85,329.69,462.11,313.58Z"/><path class="e8ded8a6-1d8e-4cff-b1b1-1903a65e8c4a" d="M462.11,313.58a72.08,72.08,0,0,0-24.26-32.73c-1.66-1.25-3.35-2.43-5.09-3.54a73.51,73.51,0,0,0-38.4-11.45,63.56,63.56,0,0,0-46.42,20.28l-2.27,2.34L363.31,306l2.27-2.31a39.74,39.74,0,0,1,29-12.74A46.89,46.89,0,0,1,412,294.6a46.18,46.18,0,0,1,11,6.41c8.59,6.58,16.27,17,17.75,29.48.92,7.71-.52,16.22-5.56,25.15a46.46,46.46,0,0,1-24.28,20.46l-26.58-25.67-17.21-16.61-64.73-62.5a12.28,12.28,0,0,0-12.42-3.53A71.35,71.35,0,0,0,244,302c-.76,1.33-1.46,2.68-2.11,4-16.54,33.67-1.83,65.67,20.9,83.05A73.66,73.66,0,0,0,294.7,403a71.41,71.41,0,0,0,11.61,1.07,63.52,63.52,0,0,0,46.44-20.28l2.26-2.33L337.3,364l-2.25,2.33a39.9,39.9,0,0,1-29,12.78A47.57,47.57,0,0,1,277.66,369c-12-9.2-22.23-25.86-16.2-45.38a47.57,47.57,0,0,1,4-9.27,46.58,46.58,0,0,1,24.29-20.62l58.9,56.89,2.29,2.21,47.41,45.79a12.76,12.76,0,0,0,7.92,3.74,3.69,3.69,0,0,0,.45.11h.71a12.27,12.27,0,0,0,2.11-.22h.95A71.6,71.6,0,0,0,456.58,368C467.44,348.63,467.85,329.69,462.11,313.58Z"/></g></g></svg>